<svg width="340" height="130" viewBox="0 0 340 130" xmlns="http://www.w3.org/2000/svg">
<path d="M 128 96 Q 127 92 132 91 L 210 89 Q 216 89 216 94 L 217 114 Q 217 119 211 119 L 133 120 Q 128 120 128 115 Z" fill="none" stroke="#0938DD" stroke-width="2.5" stroke-linecap="round"/>
<path d="M 136 62 Q 135 58 140 57 L 206 56 Q 211 56 211 61 L 212 80 Q 212 85 206 85 L 141 86 Q 136 86 136 81 Z" fill="none" stroke="#0938DD" stroke-width="2.5" stroke-linecap="round"/>
<path d="M 132 28 Q 131 24 136 23 L 198 22 Q 203 22 203 27 L 204 46 Q 204 51 198 51 L 137 52 Q 132 52 132 47 Z" fill="#0938DD" stroke="#0938DD" stroke-width="2.5"/>
<path d="M 214 8 L 210 18 M 228 16 L 218 24" stroke="#0938DD" stroke-width="2.5" stroke-linecap="round"/>
</svg>