<svg width="340" height="130" viewBox="0 0 340 130" xmlns="http://www.w3.org/2000/svg">
<path d="M 28 40 Q 27 26 44 25 Q 61 24 60 38 Q 59 52 43 51 Q 29 50 28 40 Z" fill="none" stroke="#0938DD" stroke-width="2.5" stroke-linecap="round"/>
<path d="M 76 88 Q 75 76 90 75 Q 105 74 104 86 Q 103 98 89 97 Q 77 96 76 88 Z" fill="none" stroke="#0938DD" stroke-width="2.5" stroke-linecap="round"/>
<path d="M 108 34 Q 107 24 119 23 Q 131 22 130 32 Q 129 42 118 41 Q 109 40 108 34 Z" fill="none" stroke="#0938DD" stroke-width="2.5" stroke-linecap="round"/>
<path d="M 172 8 Q 170 30 171 50 M 170 78 Q 171 100 169 122" fill="none" stroke="#0938DD" stroke-width="2.5" stroke-linecap="round"/>
<path d="M 234 62 Q 233 46 256 45 Q 280 44 279 62 Q 278 80 254 79 Q 235 78 234 62 Z" fill="#0938DD" stroke="#0938DD" stroke-width="2.5"/>
</svg>